<svg viewBox="0 0 182 60" xmlns:xlink="http://www.w3.org/1999/xlink" xmlns="http://www.w3.org/2000/svg" width="182" height="60" fill="none" id="svg-1635880711_8339"><g clip-path="url(#svg-1635880711_8339_a)" fill="none"><g opacity=".8" fill="none"><path d="M92.982 13.131c.675-2.306 2.4-4.166 4.537-4.836V6.473c-2.85.558-5.175 1.785-6.675 3.57-1.5 1.786-2.25 4.241-2.25 7.366v6.547h8.925v-5.692h-4.912c0-.967.112-4.24.375-5.133Z" fill="#00ACCD"></path><path d="M107.644 6.473h-8.925V12.2h8.925V6.473Zm-4.35 10.861c-.675 2.306-2.4 4.166-4.537 4.835v1.823c2.85-.558 5.175-1.786 6.675-3.571 1.425-1.748 2.175-4.055 2.25-7.03h-4.013c-.075 1.376-.187 3.31-.375 3.943Z" fill="#00669B"></path></g><path d="M5.306 24.03H.62V.147h4.65V24.03h.037Zm9.563-10.75c.862-.112 1.5-.26 1.875-.41.675-.297 1.012-.706 1.012-1.301 0-.707-.262-1.228-.787-1.488s-1.275-.41-2.25-.41c-1.125 0-1.913.261-2.363.82-.337.408-.562.93-.675 1.636h-4.5c.113-1.562.525-2.827 1.313-3.794 1.237-1.563 3.375-2.344 6.375-2.344 1.95 0 3.712.372 5.212 1.153 1.538.782 2.288 2.232 2.288 4.353v8.109c0 .558 0 1.227.037 2.046.038.595.113 1.004.263 1.227.15.223.375.41.675.52v.67H18.28c-.15-.372-.225-.706-.3-1.004-.037-.297-.112-.67-.112-1.079-.638.707-1.388 1.265-2.25 1.786-1.013.558-2.138.855-3.413.855-1.612 0-2.962-.446-4.012-1.376-1.05-.93-1.575-2.195-1.575-3.868 0-2.158.862-3.758 2.55-4.725.937-.52 2.287-.892 4.125-1.116l1.575-.26Zm2.85 2.158c-.3.185-.6.334-.9.446-.3.111-.713.223-1.238.335l-1.05.186c-.975.186-1.725.372-2.137.632-.75.41-1.088 1.079-1.088 1.972 0 .78.225 1.376.675 1.71.45.335.975.521 1.65.521 1.013 0 1.95-.297 2.813-.892.862-.596 1.312-1.637 1.35-3.2v-1.71h-.075Zm38.175 6.433c-1.5 1.823-3.788 2.753-6.862 2.753-3.075 0-5.325-.93-6.863-2.753-1.5-1.822-2.25-4.054-2.25-6.658 0-2.53.75-4.761 2.25-6.621 1.5-1.86 3.788-2.79 6.863-2.79 3.075 0 5.325.93 6.862 2.79 1.5 1.86 2.25 4.091 2.25 6.62 0 2.605-.75 4.837-2.25 6.66Zm-3.75-2.566c.712-.968 1.087-2.307 1.087-4.092 0-1.786-.375-3.125-1.087-4.092-.712-.967-1.762-1.413-3.15-1.413-1.35 0-2.4.483-3.15 1.45s-1.087 2.306-1.087 4.092c0 1.785.375 3.125 1.087 4.092.75.967 1.8 1.45 3.15 1.45 1.388-.037 2.438-.52 3.15-1.488ZM64.106 6.36v10.676c0 1.004.113 1.748.376 2.27.412.892 1.237 1.338 2.475 1.338 1.575 0 2.662-.632 3.262-1.897.3-.706.45-1.6.45-2.752V6.36h4.725v17.67h-4.538v-2.493c-.037.037-.15.223-.337.484-.188.26-.375.52-.6.706-.712.633-1.425 1.08-2.1 1.34a7.552 7.552 0 0 1-2.4.372c-2.625 0-4.387-.93-5.325-2.828-.525-1.041-.75-2.566-.75-4.575V6.36h4.762ZM76.07 9.82V6.547h2.474V1.6h4.613v4.91h2.887v3.273h-2.887v9.337c0 .706.075 1.19.262 1.339.188.186.75.26 1.688.26h.45c.15 0 .3 0 .45-.037v3.46l-2.213.074c-2.212.074-3.712-.298-4.5-1.116-.525-.52-.787-1.34-.787-2.455V9.82h-2.438ZM.619 31.915h4.725v17.669H.619V31.915Zm21.562 1.005c1.163.968 1.763 2.53 1.763 4.762v11.903H19.18v-10.75c0-.93-.112-1.637-.375-2.158-.45-.892-1.312-1.376-2.587-1.376-1.575 0-2.625.67-3.225 2.009-.3.706-.45 1.6-.45 2.678v9.56H7.856V31.953h4.5v2.567c.6-.893 1.163-1.562 1.688-1.972.937-.706 2.175-1.078 3.637-1.078 1.838 0 3.338.483 4.5 1.45Zm9.338-3.125c.675-.893 1.575-2.939 2.662-6.063L40.294 6.36h-4.95l-3.675 13.02-3.9-13.02h-5.175l6.525 18.45c.037.112-.075.484-.3 1.08-.225.594-.488.966-.75 1.152-.075.037-.113.075-.188.112a2.127 2.127 0 0 1-.862.26h-.113v4.65h-2.475v3.273h2.475V46.2c0 1.116.263 1.934.788 2.455.787.819 2.325 1.228 4.5 1.153l2.212-.074v-3.46c-.15 0-.3.038-.45.038h-.45c-.937 0-1.5-.075-1.687-.26-.188-.187-.263-.633-.263-1.34v-9.336h2.888V32.1h-2.888v-2.306h-.037Z" fill="#063342"></path><path d="M47.006 32.25c1.238.558 2.25 1.414 3.075 2.604.713 1.041 1.2 2.269 1.425 3.645.113.819.188 1.972.15 3.497H38.681c.075 1.785.713 3.013 1.875 3.72.713.446 1.575.67 2.55.67 1.05 0 1.913-.261 2.588-.82.375-.297.675-.706.975-1.227h4.763c-.113 1.042-.713 2.12-1.726 3.2-1.612 1.71-3.825 2.566-6.712 2.566-2.363 0-4.463-.707-6.263-2.157-1.8-1.451-2.7-3.795-2.7-7.068 0-3.05.825-5.394 2.438-7.03 1.65-1.637 3.75-2.456 6.375-2.456 1.5.038 2.925.335 4.162.856Zm-6.975 4.017c-.675.67-1.087 1.6-1.237 2.753h8.025c-.075-1.228-.488-2.157-1.238-2.79-.75-.632-1.65-.967-2.775-.967-1.2 0-2.137.335-2.775 1.004Zm21.863-4.76c.075 0 .188 0 .413.037v4.724c-.3-.037-.563-.037-.788-.074h-.562c-1.875 0-3.15.595-3.788 1.822-.375.67-.525 1.712-.525 3.162v8.444h-4.688V31.916h4.463v3.087c.713-1.19 1.35-1.971 1.875-2.417.863-.707 1.988-1.08 3.413-1.08.037-.036.112 0 .187 0Zm15.488 1.413c1.162.968 1.762 2.53 1.762 4.762v11.903h-4.762v-10.75c0-.93-.113-1.637-.375-2.158-.45-.892-1.313-1.376-2.588-1.376-1.575 0-2.625.67-3.225 2.009-.3.706-.45 1.6-.45 2.678v9.56h-4.65V31.953h4.5v2.567c.6-.893 1.163-1.562 1.688-1.972.937-.706 2.175-1.078 3.637-1.078 1.763 0 3.263.483 4.463 1.45Zm11.1 5.915c.862-.112 1.5-.26 1.875-.41.675-.297 1.012-.706 1.012-1.301 0-.707-.262-1.228-.787-1.488s-1.275-.41-2.25-.41c-1.125 0-1.913.26-2.363.819-.337.41-.562.93-.675 1.637h-4.5c.113-1.563.525-2.828 1.313-3.795 1.237-1.562 3.375-2.343 6.375-2.343 1.95 0 3.712.372 5.212 1.153 1.538.781 2.288 2.232 2.288 4.352v8.11c0 .557 0 1.227.037 2.045.038.595.113 1.005.263 1.228.15.223.375.409.675.52v.67h-5.063c-.15-.372-.225-.707-.3-1.004-.037-.298-.112-.67-.112-1.079-.638.707-1.388 1.265-2.25 1.748-1.013.558-2.138.856-3.413.856-1.612 0-2.962-.447-4.012-1.377-1.05-.93-1.575-2.194-1.575-3.868 0-2.158.862-3.757 2.55-4.724.937-.52 2.287-.893 4.125-1.116l1.575-.223Zm2.85 2.157c-.3.186-.6.335-.9.447-.3.111-.713.223-1.238.334l-1.05.186c-.975.186-1.725.372-2.137.633-.75.409-1.088 1.078-1.088 1.971 0 .781.225 1.377.675 1.711.45.335.975.521 1.65.521 1.013 0 1.95-.298 2.813-.893.862-.595 1.312-1.636 1.35-3.199v-1.71h-.075Zm4.875-5.617v-3.273h2.475v-6.36h4.612v6.36h2.888v3.273h-2.888v9.337c0 .707.075 1.19.263 1.34.187.185.75.26 1.687.26h.45c.15 0 .3 0 .45-.038v3.46l-2.212.074c-2.213.075-3.713-.297-4.5-1.116-.525-.52-.788-1.339-.788-2.455V35.375h-2.437Zm15.75-5.282h-4.725v-4.352h4.725v4.352Zm-4.725 1.823h4.725v17.669h-4.725V31.916Zm22.087 15.511c-1.5 1.822-3.787 2.752-6.862 2.752s-5.325-.93-6.863-2.752c-1.5-1.823-2.25-4.055-2.25-6.658 0-2.53.75-4.762 2.25-6.622 1.5-1.86 3.788-2.79 6.863-2.79 3.075 0 5.325.93 6.862 2.79 1.5 1.86 2.25 4.092 2.25 6.622 0 2.566-.75 4.798-2.25 6.658Zm-3.75-2.567c.713-.967 1.088-2.306 1.088-4.091 0-1.786-.375-3.125-1.088-4.092-.712-.967-1.762-1.414-3.15-1.414-1.35 0-2.4.484-3.15 1.45-.75.968-1.087 2.307-1.087 4.093 0 1.785.375 3.124 1.087 4.091.75.968 1.8 1.451 3.15 1.451 1.388-.037 2.438-.52 3.15-1.488Zm21.675-11.94c1.163.968 1.763 2.53 1.763 4.762v11.903h-4.763v-10.75c0-.93-.112-1.637-.375-2.158-.45-.892-1.312-1.376-2.587-1.376-1.575 0-2.663.67-3.225 2.009-.3.706-.45 1.6-.45 2.678v9.56h-4.65V31.953h4.5v2.567c.6-.893 1.162-1.562 1.687-1.972.938-.706 2.175-1.078 3.638-1.078 1.8 0 3.3.483 4.462 1.45Zm11.138 5.915c.863-.112 1.5-.26 1.875-.41.675-.297 1.013-.706 1.013-1.301 0-.707-.263-1.228-.788-1.488s-1.275-.41-2.25-.41c-1.125 0-1.913.26-2.363.819-.337.41-.562.93-.675 1.637h-4.5c.113-1.563.525-2.828 1.313-3.795 1.237-1.562 3.375-2.343 6.375-2.343 1.95 0 3.713.372 5.213 1.153 1.537.781 2.287 2.232 2.287 4.352v8.11c0 .557 0 1.227.038 2.045.037.595.112 1.005.262 1.228.15.223.375.409.675.52v.67h-5.062c-.15-.372-.225-.707-.3-1.004-.038-.298-.113-.67-.113-1.079-.637.707-1.387 1.265-2.25 1.748-1.013.558-2.138.856-3.413.856-1.612 0-2.962-.447-4.012-1.377-1.05-.93-1.575-2.194-1.575-3.868 0-2.158.862-3.757 2.55-4.724.937-.52 2.287-.893 4.125-1.116l1.575-.223Zm2.85 2.157c-.3.186-.6.335-.9.447a9.19 9.19 0 0 1-1.237.334l-1.05.186c-.976.186-1.726.372-2.138.633-.75.409-1.088 1.078-1.088 1.971 0 .781.225 1.377.675 1.711.45.335.975.521 1.65.521 1.013 0 1.951-.298 2.813-.893.863-.595 1.313-1.636 1.35-3.199v-1.71h-.075Zm11.438 8.593h-4.65V25.667h4.65v23.918Z" fill="#063342"></path><path d="M181.182 28.494c0 1.562-1.275 2.79-2.85 2.79-1.612 0-2.887-1.228-2.887-2.79s1.275-2.79 2.887-2.79c1.575.037 2.85 1.228 2.85 2.79Zm-5.025 0c0 1.227.938 2.232 2.175 2.232 1.2 0 2.138-.967 2.138-2.195 0-1.227-.938-2.232-2.175-2.232-1.2 0-2.138.967-2.138 2.195Zm1.725 1.45h-.637v-2.79c.262-.036.6-.074 1.087-.074.525 0 .75.075.938.224.187.111.3.334.3.595 0 .335-.263.558-.563.67v.037c.263.074.413.297.488.67.075.408.15.557.187.669h-.675c-.075-.112-.15-.335-.225-.67-.037-.297-.225-.41-.562-.41h-.3v1.08h-.038Zm0-1.562h.3c.375 0 .638-.111.638-.409 0-.26-.188-.409-.6-.409-.188 0-.3 0-.375.037v.781h.037Z" fill="#0C2F4E"></path><path d="M5.344 25.815H.619v4.39h4.725v-4.39Z" fill="#063342"></path></g><defs><clipPath id="svg-1635880711_8339_a"><path fill="#fff" d="M0 0h181.463v60H0z"></path></clipPath></defs></svg>